<?xml version="1.0" encoding="utf-8"?>
<!-- Generator: Adobe Illustrator 24.1.2, SVG Export Plug-In . SVG Version: 6.00 Build 0)  -->
<svg version="1.1" xmlns="http://www.w3.org/2000/svg" xmlns:xlink="http://www.w3.org/1999/xlink" x="0px" y="0px"
	 viewBox="175 275 650 450" style="enable-background:new 0 0 1000 1000;" xml:space="preserve">
<style type="text/css">
	.st0{fill:none;stroke-width:16;stroke-miterlimit:10;}
</style>
<g id="logo">
	<path class="st0" d="M800,500c0,110.46-134.31,200-300,200s-300-89.54-300-200s134.31-200,300-200S800,389.54,800,500z"/>
	<g>
		<path d="M278.55,419.55h15l1.5,31.8h0.3c10.2-23.4,35.7-37.8,67.5-37.8s53.4,15.3,60.9,40.2h0.3c12.3-26.4,39.9-40.2,70.8-40.2
			c40.5,0,64.2,24,64.2,62.1v94.8h-16.5v-93c0-30.3-18.9-48.3-50.7-48.3c-40.8,0-64.8,25.8-64.8,64.8v76.5h-16.5v-93
			c0-30.3-18.9-48.3-50.7-48.3c-40.8,0-64.8,24.6-64.8,64.8v76.5h-16.5V419.55z"/>
		<path d="M577.95,522.75l15-5.4c4.8,25.5,33.6,43.8,70.8,43.8c31.2,0,55.5-13.2,55.5-31.2c-0.3-14.4-14.7-22.5-45-27.3l-31.2-4.5
			c-34.8-5.7-53.1-16.8-53.1-39.3c0.3-26.7,26.4-45.3,62.4-45.3c33,0,61.2,16.8,69.6,40.2l-14.4,6.6c-6.6-18.6-28.8-31.8-54.9-31.8
			c-26.7,0-46.2,12.9-46.2,29.4c-0.3,13.5,12.3,20.4,40.2,24.9l31.5,4.5c37.5,6.3,57.3,17.7,57.3,41.1c0,28.5-30.3,48-71.4,48
			C619.65,576.45,583.95,554.55,577.95,522.75z"/>
	</g>
</g>
</svg>
