<?xml version="1.0" standalone="no"?>
<!DOCTYPE svg PUBLIC "-//W3C//DTD SVG 20010904//EN"
 "http://www.w3.org/TR/2001/REC-SVG-20010904/DTD/svg10.dtd">
<svg version="1.0" xmlns="http://www.w3.org/2000/svg"
 width="1000.000000pt" height="1000.000000pt" viewBox="0 0 1000.000000 1000.000000"
 preserveAspectRatio="xMidYMid meet">
<metadata>
Created by potrace 1.14, written by Peter Selinger 2001-2017
</metadata>
<g transform="translate(0.000000,1000.000000) scale(0.100000,-0.100000)"
fill="#000000" stroke="none">
<path d="M7594 7585 c-284 -32 -542 -100 -749 -195 -76 -35 -245 -139 -280
-171 -16 -16 -33 -29 -36 -29 -4 0 -36 -29 -71 -65 -36 -36 -67 -65 -70 -65
-2 0 13 93 34 208 42 233 46 277 22 286 -9 3 -317 6 -685 6 l-669 0 -25 -41
c-15 -22 -29 -48 -33 -57 -6 -15 -111 -209 -139 -257 -6 -11 -21 -40 -34 -65
-12 -25 -25 -47 -28 -50 -3 -3 -17 -27 -31 -55 -13 -27 -27 -52 -30 -55 -3 -3
-13 -21 -22 -40 -17 -34 -30 -59 -168 -310 -34 -63 -79 -146 -100 -185 -71
-132 -200 -370 -210 -385 -5 -8 -22 -40 -38 -70 -16 -30 -40 -75 -54 -100 -22
-40 -45 -82 -130 -240 -155 -286 -193 -356 -197 -360 -3 -3 -18 -30 -34 -60
-15 -30 -52 -100 -83 -155 -30 -55 -60 -111 -67 -125 -6 -14 -14 -27 -17 -30
-3 -3 -16 -25 -28 -50 -13 -25 -42 -79 -65 -120 -62 -113 -88 -162 -129 -237
-85 -158 -158 -287 -158 -280 -1 42 -665 3314 -673 3319 -7 4 -312 8 -678 8
-527 0 -669 -3 -677 -13 -8 -10 -110 -558 -192 -1032 -13 -74 -11 -64 -141
-800 -66 -374 -131 -741 -144 -815 -13 -74 -45 -252 -70 -395 -26 -143 -49
-273 -51 -290 -3 -16 -11 -64 -19 -105 -66 -349 -215 -1230 -213 -1259 l3 -36
506 -3 c424 -2 508 0 518 12 6 8 36 150 65 317 30 167 73 410 96 539 36 204
183 1033 271 1530 16 91 44 248 61 349 27 152 34 179 40 150 4 -18 73 -342
153 -719 80 -377 168 -788 195 -915 27 -126 72 -338 100 -470 141 -667 164
-771 173 -782 7 -10 108 -13 443 -13 l434 0 27 43 c15 23 28 44 28 47 0 3 12
25 27 50 81 141 148 261 148 265 0 3 16 31 35 61 19 30 35 57 35 60 0 4 15 32
34 63 18 31 46 79 61 106 119 215 190 341 194 345 4 3 13 19 21 35 8 17 42 77
74 135 33 58 73 130 89 160 17 30 41 72 54 92 13 21 23 40 23 43 0 3 12 24 27
48 15 23 28 44 28 47 1 9 38 75 44 80 3 3 16 25 29 50 23 46 55 104 90 162 10
18 68 121 128 228 59 107 111 197 114 200 3 3 13 21 22 40 10 19 33 62 51 95
19 33 58 103 88 155 29 52 57 98 62 101 5 3 8 8 6 10 -4 6 82 158 93 165 6 4
9 3 6 -2 -4 -5 -22 -101 -42 -214 -20 -113 -43 -239 -51 -280 -7 -41 -16 -91
-19 -110 -3 -19 -8 -46 -11 -60 -3 -14 -43 -241 -90 -505 -47 -264 -94 -527
-105 -585 -35 -181 -172 -952 -183 -1027 -9 -57 -8 -75 2 -87 12 -14 70 -16
510 -16 273 0 502 4 509 8 10 7 114 556 157 832 12 73 19 76 45 18 28 -62 114
-210 133 -230 8 -7 16 -18 18 -25 6 -16 97 -119 155 -174 217 -209 546 -367
889 -428 33 -6 69 -13 81 -15 157 -31 634 -32 844 -2 402 57 736 181 984 365
56 42 256 235 256 247 0 5 12 23 28 39 15 17 33 42 41 57 8 16 18 28 23 28 5
0 7 4 4 9 -3 5 2 19 12 32 43 59 93 183 132 329 76 283 65 652 -26 858 -12 28
-21 52 -18 52 9 0 -98 165 -139 214 -59 71 -85 95 -179 170 -46 36 -91 72
-100 81 -10 8 -18 13 -18 11 0 -3 -26 11 -57 30 -189 115 -454 218 -828 319
-597 163 -813 288 -866 503 -29 117 25 286 120 379 68 66 71 69 148 107 184
93 478 118 697 61 66 -17 190 -75 227 -105 83 -68 106 -92 145 -151 47 -72 94
-197 94 -251 0 -58 19 -107 43 -113 36 -9 1005 -1 1014 8 14 15 4 206 -17 324
-81 454 -336 796 -747 1002 -157 79 -363 143 -569 177 -137 22 -595 28 -760 9z
m-1419 -1962 c69 -166 224 -357 373 -460 28 -20 52 -40 52 -45 0 -4 4 -8 9 -8
5 0 39 -18 76 -40 197 -121 385 -194 791 -310 227 -65 343 -101 389 -120 11
-4 36 -14 55 -20 67 -24 205 -94 255 -128 123 -85 178 -173 183 -296 10 -189
-85 -344 -268 -440 -151 -79 -262 -101 -510 -100 -170 0 -205 3 -275 22 -81
23 -235 91 -235 105 0 4 -6 7 -14 7 -16 0 -151 130 -182 175 -61 88 -123 269
-124 357 0 55 -18 88 -49 89 -14 1 -48 3 -76 4 -27 2 -195 4 -372 5 -177 0
-324 4 -326 8 -2 4 20 142 49 307 29 165 56 316 59 335 3 19 14 82 25 140 10
58 33 189 51 293 18 103 33 187 34 187 1 0 15 -30 30 -67z"/>
</g>
</svg>
